{"title":"First Peoples S01E02 Africa XviD-AFG","uid":12061494,"size":480961526,"categoryP":"video","categoryS":"tv_shows","magnet":"?xt=urn:btih:6c15c757721e4222dbc2b7fe827f45004ab534cd&amp;dn=First+Peoples+S01E02+Africa+XviD-AFG&amp;tr=udp%3A%2F%2Ftracker.openbittorrent.com%3A80&amp;tr=udp%3A%2F%2Fopen.demonii.com%3A1337&amp;tr=udp%3A%2F%2Ftracker.coppersurfer.tk%3A6969&amp;tr=udp%3A%2F%2Fexodus.desync.com%3A6969","seeders":3,"leechers":0,"uploader":"toots2boots","files":1,"time":1435275424,"description":"First Peoples S01E02 Africa XviD-AFG\nA five-part series that features the latest research exploring how early humans evolved.\nSee how the mixing of prehistoric human genes led the way for our species to survive and thrive around the globe. Archaeology, genetics and anthropology cast new light on 200,000 years of history, detailing how early humans became dominant.\n\nGeneral\nComplete name                            : M:PostsFirst Peoples S01E02 Africa XviD-AFGFirst.Peoples.S01E02.Africa.XviD-AFG.avi\nFormat                                   : AVI\nFormat/Info                              : Audio Video Interleave\nFile size                                : 459 MiB\nDuration                                 : 54mn 10s\nOverall bit rate                         : 1 184 Kbps\nWriting application                      : Lavf56.36.100\n\nVideo\nID                                       : 0\nFormat                                   : xvid\nCodec ID                                 : xvid\nDuration                                 : 54mn 10s\nBit rate                                 : 1 043 Kbps\nWidth                                    : 640 pixels\nHeight                                   : 360 pixels\nDisplay aspect ratio                     : 16:9\nFrame rate                               : 25.000 fps\nBits/(Pixel*Frame)                       : 0.181\nStream size                              : 404 MiB (88%)\n\nAudio\nID                                       : 1\nFormat                                   : MPEG Audio\nFormat version                           : Version 1\nFormat profile                           : Layer 3\nMode                                     : Joint stereo\nMode extension                           : MS Stereo\nCodec ID                                 : 55\nCodec ID/Hint                            : MP3\nDuration                                 : 54mn 9s\nBit rate mode                            : Constant\nBit rate                                 : 128 Kbps\nChannel(s)                               : 2 channels\nSampling rate                            : 48.0 KHz\nCompression mode                         : Lossy\nStream size                              : 49.6 MiB (11%)\nAlignment                                : Aligned on interleaves\nInterleave, duration                     : 24 ms (0.60 video frame)\nInterleave, preload duration             : 24 ms","torrent":{"xt":"urn:btih:6c15c757721e4222dbc2b7fe827f45004ab534cd","amp;dn":"First+Peoples+S01E02+Africa+XviD-AFG","amp;tr":["udp%3A%2F%2Ftracker.openbittorrent.com%3A80","udp%3A%2F%2Fopen.demonii.com%3A1337","udp%3A%2F%2Ftracker.coppersurfer.tk%3A6969","udp%3A%2F%2Fexodus.desync.com%3A6969"],"infoHash":"6c15c757721e4222dbc2b7fe827f45004ab534cd","infoHashBuffer":{"type":"Buffer","data":[108,21,199,87,114,30,66,34,219,194,183,254,130,127,69,0,74,181,52,205]},"announce":[],"urlList":[]}}